<svg xmlns="http://www.w3.org/2000/svg" viewBox="0 0 24 24">
  <defs>
    <style>
      .cls-1 {
        fill: none;
      }

      .cls-2, .cls-3 {
        fill: #7b9995;
      }

      .cls-2 {
        stroke: #7b9995;
        stroke-width: 0.5px;
      }
    </style>
  </defs>
  <g id="Symbol_29_1" data-name="Symbol 29 – 1" transform="translate(-168.5 -60.5)">
    <path id="Path_99" data-name="Path 99" class="cls-1" d="M0,0H24V24H0Z" transform="translate(168.5 60.5)"/>
    <g id="Group_482" data-name="Group 482" transform="translate(35 -354)">
      <path id="Path_167" data-name="Path 167" class="cls-2" d="M2.474,9.612l1.9-1.9L5.635,8.977,8.321,5.956,7.875,5.51,5.635,8.029,4.37,6.765,2,9.138Z" transform="translate(139.617 422.268)"/>
      <g id="Outline" transform="translate(137 418)">
        <g id="Group_477" data-name="Group 477" transform="translate(0 0)">
          <path id="Path_158" data-name="Path 158" class="cls-3" d="M17.222,3.778h-.889V2H14.556V3.778H7.444V2H5.667V3.778H4.778A1.77,1.77,0,0,0,3.009,5.556L3,18a1.777,1.777,0,0,0,1.778,1.778H17.222A1.783,1.783,0,0,0,19,18V5.556A1.783,1.783,0,0,0,17.222,3.778Zm0,14.222H4.778V9.111H17.222Zm0-10.667H4.778V5.556H17.222Z" transform="translate(-3 -2)"/>
        </g>
      </g>
    </g>
  </g>
</svg>
